# xmcd CD database file
# Copyright (C) 1993-1996 Ti Kan
#
# Track frame offsets:
#  150
#  16780
#  42568
#  61139
#  83266
#  100744
#  122934
#  144594
#  160776
#  177964
#
# Disc length: 2584 seconds
#
# Revision: 1
# Processed by: cddbd v1.5.2PL0 Copyright (c) Steve Scherf et al.
# Submitted via: Advanced CD Ripper Pro 2.0
#
DISCID=750a160a
DTITLE=NÝHAT DOÐAN - DAYAN YÜREÐÝM
DYEAR=2003
DGENRE=SLOW
TTITLE0=ÖLÜREM KIZLAR (DEÐÝRMEN)
TTITLE1=PERÝÞAN
TTITLE2=ZÜLEYHA
TTITLE3=DAYAN YÜREÐÝM
TTITLE4=KURBAN OLAYIM SANA
TTITLE5=GÜNAH YAZAR MI
TTITLE6=ÖLEM BEN ÖLEM
TTITLE7=PLATONÝK AÞKIM
TTITLE8=HASRET SARHOÞU
TTITLE9=DOY DOY
EXTD=
EXTT0=
EXTT1=
EXTT2=
EXTT3=
EXTT4=
EXTT5=
EXTT6=
EXTT7=
EXTT8=
EXTT9=
PLAYORDER=
